<?xml version="1.0" encoding="utf-8"?>
<!-- Generated by IcoMoon.io -->
<!DOCTYPE svg PUBLIC "-//W3C//DTD SVG 1.1//EN" "http://www.w3.org/Graphics/SVG/1.1/DTD/svg11.dtd">
<svg version="1.1" xmlns="http://www.w3.org/2000/svg" xmlns:xlink="http://www.w3.org/1999/xlink" width="32" height="32" viewBox="0 0 32 32">
<g>
</g>
	<path d="M16 0c-8.822 0-16 7.178-16 16s7.178 16 16 16c8.822 0 16-7.178 16-16 0-8.822-7.178-16-16-16zM16 29.754c-7.584 0-13.754-6.17-13.754-13.754 0-7.584 6.17-13.754 13.754-13.754 7.586 0 13.754 6.17 13.754 13.754 0 7.586-6.168 13.754-13.754 13.754z" fill="#000000" />
	<path d="M16 7.934c-4.448 0-8.066 3.618-8.066 8.066 0 4.446 3.618 8.066 8.066 8.066 4.446 0 8.066-3.618 8.066-8.066 0-4.448-3.62-8.066-8.066-8.066zM16 21.82c-3.21 0-5.82-2.61-5.82-5.82s2.612-5.82 5.82-5.82c3.21 0 5.82 2.612 5.82 5.82 0 3.21-2.61 5.82-5.82 5.82z" fill="#000000" />
	<path d="M16 12.116c-2.142 0-3.884 1.742-3.884 3.884s1.742 3.884 3.884 3.884 3.884-1.742 3.884-3.884-1.742-3.884-3.884-3.884zM16 17.638c-0.904 0-1.638-0.734-1.638-1.638s0.734-1.638 1.638-1.638 1.638 0.734 1.638 1.638-0.734 1.638-1.638 1.638z" fill="#000000" />
</svg>
