<?xml version="1.0" encoding="utf-8"?>
<!-- Generated by IcoMoon.io -->
<!DOCTYPE svg PUBLIC "-//W3C//DTD SVG 1.1//EN" "http://www.w3.org/Graphics/SVG/1.1/DTD/svg11.dtd">
<svg version="1.1" xmlns="http://www.w3.org/2000/svg" xmlns:xlink="http://www.w3.org/1999/xlink" width="32" height="32" viewBox="0 0 32 32">
<g>
</g>
	<path d="M16 0.838c-8.36 0-15.16 6.802-15.16 15.162s6.8 15.162 15.16 15.162c8.358 0 15.16-6.802 15.16-15.162s-6.802-15.162-15.16-15.162zM26.106 16c0 1.868-0.544 3.598-1.432 5.1l-13.776-13.774c1.502-0.888 3.232-1.434 5.102-1.434 5.572 0 10.106 4.534 10.106 10.108zM5.894 16c0-1.868 0.544-3.598 1.43-5.1l13.778 13.776c-1.504 0.886-3.234 1.432-5.102 1.432-5.574 0-10.106-4.534-10.106-10.108z" fill="#000000" />
</svg>
