<?xml version="1.0" encoding="utf-8"?>
<!-- Generated by IcoMoon.io -->
<!DOCTYPE svg PUBLIC "-//W3C//DTD SVG 1.1//EN" "http://www.w3.org/Graphics/SVG/1.1/DTD/svg11.dtd">
<svg version="1.1" xmlns="http://www.w3.org/2000/svg" xmlns:xlink="http://www.w3.org/1999/xlink" width="32" height="32" viewBox="0 0 32 32">
<g>
</g>
	<path d="M12 30.4c-0.308 0-0.62-0.060-0.916-0.184-0.9-0.37-1.484-1.246-1.484-2.216v-5.6h-5.6c-1.326 0-2.4-1.074-2.4-2.4v-16c0-1.326 1.076-2.4 2.4-2.4h24c1.326 0 2.4 1.076 2.4 2.4v16c0 1.326-1.074 2.4-2.4 2.4h-7.006l-7.296 7.296c-0.46 0.46-1.074 0.704-1.698 0.704zM6.4 17.6h5.6c1.326 0 2.4 1.074 2.4 2.4v2.206l3.902-3.902c0.452-0.45 1.062-0.704 1.698-0.704h5.6v-11.2h-19.2v11.2z" fill="#000000" />
</svg>
