<?xml version="1.0" encoding="utf-8"?>
<!-- Generated by IcoMoon.io -->
<!DOCTYPE svg PUBLIC "-//W3C//DTD SVG 1.1//EN" "http://www.w3.org/Graphics/SVG/1.1/DTD/svg11.dtd">
<svg version="1.1" xmlns="http://www.w3.org/2000/svg" xmlns:xlink="http://www.w3.org/1999/xlink" width="32" height="32" viewBox="0 0 32 32">
<g>
</g>
	<path d="M20.466 16.262l6.7-6.698c1.234-1.232 1.234-3.232 0-4.466s-3.232-1.234-4.466 0l-6.7 6.698-6.7-6.698c-1.234-1.234-3.234-1.234-4.466 0-1.234 1.232-1.234 3.232 0 4.466l6.7 6.698-6.7 6.698c-1.234 1.234-1.234 3.232 0 4.466 0.616 0.616 1.426 0.926 2.234 0.926s1.616-0.308 2.234-0.926l6.698-6.698 6.7 6.698c0.616 0.616 1.426 0.926 2.234 0.926s1.616-0.308 2.234-0.926c1.234-1.234 1.234-3.232 0-4.466l-6.702-6.698z" fill="#000000" />
</svg>
