<?xml version="1.0" encoding="utf-8"?>
<!-- Generated by IcoMoon.io -->
<!DOCTYPE svg PUBLIC "-//W3C//DTD SVG 1.1//EN" "http://www.w3.org/Graphics/SVG/1.1/DTD/svg11.dtd">
<svg version="1.1" xmlns="http://www.w3.org/2000/svg" xmlns:xlink="http://www.w3.org/1999/xlink" width="32" height="32" viewBox="0 0 32 32">
<g>
</g>
	<path d="M16 4.797c-6.269 0-11.351 5.082-11.351 11.351s5.082 11.349 11.351 11.349 11.351-5.082 11.351-11.351-5.082-11.349-11.351-11.349zM16 24.774c-4.756 0-8.626-3.87-8.626-8.626s3.87-8.626 8.626-8.626 8.626 3.87 8.626 8.626-3.87 8.626-8.626 8.626z" fill="#000000" />
	<path d="M16.454 10.245c-0.502 0-0.907 0.407-0.907 0.907v4.539h-3.634c-0.502 0-0.907 0.407-0.907 0.907 0 0.502 0.407 0.907 0.907 0.907h5.448v-6.352c0-0.502-0.405-0.909-0.907-0.909z" fill="#000000" />
</svg>
