<?xml version="1.0" encoding="utf-8"?>
<!-- Generated by IcoMoon.io -->
<!DOCTYPE svg PUBLIC "-//W3C//DTD SVG 1.1//EN" "http://www.w3.org/Graphics/SVG/1.1/DTD/svg11.dtd">
<svg version="1.1" xmlns="http://www.w3.org/2000/svg" xmlns:xlink="http://www.w3.org/1999/xlink" width="32" height="32" viewBox="0 0 32 32">
<g>
</g>
	<path d="M23.626 8.234l2.408-4.466-2.322-1.252-2.217 4.113c-1.618-0.937-3.491-1.481-5.495-1.481-6.073 0-10.996 4.923-10.996 10.996s4.923 10.995 10.996 10.995 10.996-4.923 10.996-10.996c0-3.107-1.295-5.909-3.37-7.908zM16 24.5c-4.607 0-8.356-3.749-8.356-8.356s3.749-8.356 8.356-8.356c1.549 0 2.995 0.432 4.241 1.169l-4.592 8.517-3.635-3.070-1.703 2.015 6.118 5.167 5.88-10.906c1.273 1.468 2.048 3.375 2.048 5.464 0 4.607-3.749 8.356-8.356 8.356z" fill="#000000" />
</svg>
