<?xml version="1.0" encoding="utf-8"?>
<!-- Generated by IcoMoon.io -->
<!DOCTYPE svg PUBLIC "-//W3C//DTD SVG 1.1//EN" "http://www.w3.org/Graphics/SVG/1.1/DTD/svg11.dtd">
<svg version="1.1" xmlns="http://www.w3.org/2000/svg" xmlns:xlink="http://www.w3.org/1999/xlink" width="32" height="32" viewBox="0 0 32 32">
<g>
</g>
	<path d="M2.286 25.714v-13.714c0.38 0.428 0.792 0.822 1.232 1.178 3.19 2.452 5.726 4.464 7.608 6.036 0.608 0.512 1.102 0.91 1.482 1.196 0.38 0.286 0.896 0.574 1.544 0.866s1.258 0.438 1.83 0.438h0.036c0.572 0 1.182-0.146 1.83-0.438 0.648-0.292 1.164-0.58 1.544-0.866 0.38-0.286 0.874-0.684 1.482-1.196 1.88-1.572 4.416-3.584 7.608-6.036 0.44-0.358 0.852-0.75 1.232-1.178v13.714c0 0.154-0.056 0.288-0.17 0.402-0.112 0.112-0.248 0.17-0.402 0.17h-26.284c-0.154 0-0.288-0.056-0.402-0.17-0.114-0.114-0.17-0.248-0.17-0.402zM2.286 6.946v-0.436c0 0 0.002-0.078 0.008-0.232 0.006-0.156 0.024-0.23 0.054-0.224 0.030 0.006 0.062-0.048 0.098-0.16s0.090-0.158 0.16-0.134c0.072 0.024 0.154 0.008 0.25-0.044h26.286c0.154 0 0.288 0.056 0.402 0.17 0.112 0.112 0.17 0.248 0.17 0.402 0 2-0.874 3.69-2.624 5.072-2.298 1.81-4.684 3.696-7.16 5.66-0.072 0.060-0.28 0.236-0.624 0.526-0.348 0.29-0.622 0.514-0.824 0.668-0.202 0.154-0.466 0.342-0.794 0.562-0.328 0.22-0.628 0.384-0.902 0.492-0.274 0.108-0.53 0.16-0.768 0.16h-0.036c-0.238 0-0.494-0.054-0.768-0.16-0.274-0.108-0.574-0.27-0.902-0.492-0.328-0.22-0.592-0.408-0.794-0.562s-0.476-0.378-0.822-0.67c-0.344-0.292-0.554-0.466-0.624-0.526-2.476-1.964-4.864-3.852-7.16-5.66-0.642-0.512-1.24-1.2-1.794-2.062s-0.832-1.648-0.832-2.35zM0 6.286v19.428c0 0.786 0.28 1.458 0.84 2.018 0.56 0.56 1.232 0.84 2.018 0.84h26.286c0.786 0 1.458-0.28 2.018-0.84 0.56-0.56 0.84-1.232 0.84-2.018v-19.428c0-0.786-0.28-1.458-0.84-2.018-0.56-0.56-1.232-0.84-2.018-0.84h-26.286c-0.786 0-1.458 0.28-2.018 0.84s-0.84 1.232-0.84 2.018z" fill="#000000" />
</svg>
