<?xml version="1.0" encoding="utf-8"?>
<!-- Generated by IcoMoon.io -->
<!DOCTYPE svg PUBLIC "-//W3C//DTD SVG 1.1//EN" "http://www.w3.org/Graphics/SVG/1.1/DTD/svg11.dtd">
<svg version="1.1" xmlns="http://www.w3.org/2000/svg" xmlns:xlink="http://www.w3.org/1999/xlink" width="32" height="32" viewBox="0 0 32 32">
<g>
</g>
	<path d="M28.616 3.385c-2.182-2.182-5.085-3.385-8.172-3.385s-5.989 1.202-8.171 3.385-3.384 5.084-3.384 8.17c-0.001 2.177 0.608 4.254 1.725 6.060l-9.834 9.834c-1.042 1.042-1.042 2.729 0 3.771 0.521 0.521 1.203 0.781 1.885 0.781s1.364-0.26 1.885-0.781l9.833-9.833c1.805 1.117 3.884 1.726 6.061 1.726 3.087 0 5.988-1.201 8.17-3.384 2.182-2.184 3.385-5.086 3.384-8.171 0.002-3.087-1.201-5.99-3.384-8.172zM24.845 15.956c-2.341 2.341-6.413 2.346-8.768 0.026-0.010-0.011-0.013-0.025-0.024-0.036-0.011-0.011-0.026-0.014-0.036-0.024-1.156-1.172-1.794-2.719-1.794-4.367 0-1.661 0.647-3.224 1.822-4.399 1.174-1.174 2.738-1.822 4.399-1.822 1.663 0 3.226 0.648 4.401 1.822 1.175 1.175 1.821 2.738 1.821 4.401 0 1.662-0.646 3.224-1.821 4.4z" fill="#000000" />
</svg>
