<?xml version="1.0" encoding="utf-8"?>
<!-- Generated by IcoMoon.io -->
<!DOCTYPE svg PUBLIC "-//W3C//DTD SVG 1.1//EN" "http://www.w3.org/Graphics/SVG/1.1/DTD/svg11.dtd">
<svg version="1.1" xmlns="http://www.w3.org/2000/svg" xmlns:xlink="http://www.w3.org/1999/xlink" width="32" height="32" viewBox="0 0 32 32">
<g>
</g>
	<path d="M31.942 16.292c0.076-0.186 0.076-0.396 0-0.582-0.038-0.094-0.094-0.178-0.166-0.248l-15.236-15.24c-0.298-0.298-0.78-0.298-1.078 0s-0.298 0.78 0 1.078l13.938 13.938h-28.638c-0.42 0-0.762 0.342-0.762 0.762s0.342 0.762 0.762 0.762h28.638l-13.938 13.938c-0.298 0.298-0.298 0.78 0 1.078 0.148 0.148 0.344 0.222 0.538 0.222 0.196 0 0.39-0.074 0.538-0.224l15.238-15.238c0.072-0.070 0.128-0.154 0.166-0.246z" fill="#000000" />
</svg>
