<?xml version="1.0" encoding="utf-8"?>
<!-- Generator: Adobe Illustrator 17.0.0, SVG Export Plug-In . SVG Version: 6.00 Build 0)  -->
<!DOCTYPE svg PUBLIC "-//W3C//DTD SVG 1.1//EN" "http://www.w3.org/Graphics/SVG/1.1/DTD/svg11.dtd">
<svg version="1.1" id="Layer_1" xmlns="http://www.w3.org/2000/svg" xmlns:xlink="http://www.w3.org/1999/xlink" x="0px" y="0px"
	 width="131px" height="105.842px" viewBox="0 0 131 105.842" enable-background="new 0 0 131 105.842" xml:space="preserve">
<path fill="#010101" d="M131,52.921c0-2.446-0.838-4.506-2.514-6.182L84.261,2.514C82.495,0.838,80.434,0,78.079,0
	c-2.31,0-4.348,0.838-6.114,2.514L66.87,7.609c-1.721,1.721-2.582,3.782-2.582,6.182s0.861,4.461,2.582,6.182l19.905,19.905H7.948
	c-2.355,0-4.269,0.849-5.74,2.548C0.736,44.124,0,46.173,0,48.573v8.696c0,2.4,0.736,4.45,2.208,6.148s3.385,2.548,5.74,2.548
	h78.826L66.87,85.938c-1.721,1.63-2.582,3.668-2.582,6.114c0,2.446,0.861,4.484,2.582,6.114l5.095,5.095
	c1.721,1.721,3.759,2.582,6.114,2.582c2.4,0,4.461-0.861,6.182-2.582l44.226-44.226C130.162,57.45,131,55.412,131,52.921z"/>
</svg>
