<?xml version="1.0" encoding="utf-8"?>
<!-- Generator: Adobe Illustrator 15.0.0, SVG Export Plug-In . SVG Version: 6.00 Build 0)  -->
<!DOCTYPE svg PUBLIC "-//W3C//DTD SVG 1.1//EN" "http://www.w3.org/Graphics/SVG/1.1/DTD/svg11.dtd">
<svg version="1.1" id="Layer_1" xmlns="http://www.w3.org/2000/svg" xmlns:xlink="http://www.w3.org/1999/xlink" x="0px" y="0px"
	 width="1024px" height="768px" viewBox="0 0 1024 768" enable-background="new 0 0 1024 768" xml:space="preserve">
<polyline fill="none" stroke="#000000" stroke-width="3" stroke-linecap="round" stroke-linejoin="round" stroke-miterlimit="10" points="
	586,385.922 577.845,394.078 574,390 "/>
<g>
	<circle fill="none" stroke="#000000" stroke-width="2.4" stroke-miterlimit="10" cx="505" cy="390" r="6"/>
	
		<line fill="none" stroke="#000000" stroke-width="2.4" stroke-miterlimit="10" x1="500.757" y1="385.758" x2="509.242" y2="394.242"/>
</g>
<g>
	
		<line fill="none" stroke="#000000" stroke-width="3" stroke-linecap="round" stroke-linejoin="round" stroke-miterlimit="10" x1="650.757" y1="385.758" x2="659.242" y2="394.242"/>
	
		<line fill="none" stroke="#000000" stroke-width="3" stroke-linecap="round" stroke-linejoin="round" stroke-miterlimit="10" x1="659.242" y1="385.758" x2="650.757" y2="394.242"/>
</g>
<g>
	
		<line fill="none" stroke="#000000" stroke-width="2.4" stroke-linecap="round" stroke-miterlimit="10" x1="425" y1="384" x2="425" y2="396"/>
	<polygon fill="none" stroke="#000000" stroke-width="2.4" stroke-linecap="round" stroke-miterlimit="10" points="425,384 425,392 
		435,392 433,388 435,384 	"/>
</g>
<polygon fill="none" stroke="#000000" stroke-width="2.4" stroke-linecap="round" stroke-miterlimit="10" points="361,387.429 
	352.429,396 349,396 349,392.571 357.571,384 "/>
<rect x="325" y="360" fill="none" stroke="#CCCCCC" stroke-width="0.25" stroke-miterlimit="10" width="60" height="60"/>
<rect x="400" y="360" fill="none" stroke="#CCCCCC" stroke-width="0.25" stroke-miterlimit="10" width="60" height="60"/>
<rect x="475" y="360" fill="none" stroke="#CCCCCC" stroke-width="0.25" stroke-miterlimit="10" width="60" height="60"/>
<rect x="550" y="360" fill="none" stroke="#CCCCCC" stroke-width="0.25" stroke-miterlimit="10" width="60" height="60"/>
<rect x="625" y="360" fill="none" stroke="#CCCCCC" stroke-width="0.25" stroke-miterlimit="10" width="60" height="60"/>
<text transform="matrix(1 0 0 1 325 435)" fill="#666666" font-family="'HelveticaNeue'" font-size="10">Edit</text>
<text transform="matrix(1 0 0 1 400 435)" fill="#666666" font-family="'HelveticaNeue'" font-size="10">Flag</text>
<text transform="matrix(1 0 0 1 475 435)" fill="#666666" font-family="'HelveticaNeue'" font-size="10">Spam</text>
<text transform="matrix(1 0 0 1 550 435)"><tspan x="0" y="0" fill="#666666" font-family="'HelveticaNeue'" font-size="10">Unspam/</tspan><tspan x="0" y="12" fill="#666666" font-family="'HelveticaNeue'" font-size="10">Unflag</tspan></text>
<text transform="matrix(1 0 0 1 625 435)" fill="#666666" font-family="'HelveticaNeue'" font-size="10">Delete</text>
<text transform="matrix(1 0 0 1 783.4424 730)"><tspan x="0" y="0" fill="#666666" font-family="'HelveticaNeue'" font-size="10">Design: Aldo Puicon     </tspan><tspan x="104.469" y="0" fill="#CCCCCC" font-family="'HelveticaNeue-Light'" font-size="10">|     </tspan><tspan x="120.589" y="0" fill="#666666" font-family="'HelveticaNeue'" font-size="10">Date: Sep 18, 2013</tspan></text>
</svg>
