<svg xmlns="http://www.w3.org/2000/svg" xmlns:xlink="http://www.w3.org/1999/xlink" version="1.1" id="Layer_1" x="0px" y="0px" width="100px" height="100px" viewBox="0 0 100 100" enable-background="new 0 0 100 100" xml:space="preserve">
<path fill="#000000" d="M55.184,18.967c-19.854,0-36.007,16.154-36.007,36.011c0,19.854,16.151,36.01,36.007,36.01  c19.855,0,36.01-16.156,36.01-36.01C91.193,35.122,75.037,18.967,55.184,18.967z M55.184,84.795  c-16.44,0-29.815-13.377-29.815-29.816c0-16.442,13.375-29.818,29.815-29.818C71.623,25.161,85,38.536,85,54.979  C85,71.418,71.623,84.795,55.184,84.795z"/>
<path fill="#000000" d="M70.6,54.15l-12.27-0.002v-21.04c0-1.71-1.387-3.096-3.096-3.096s-3.096,1.386-3.096,3.096v24.136  c0,1.711,1.387,3.098,3.096,3.098l0,0h0.004h15.359c1.709,0,3.096-1.385,3.096-3.096C73.693,55.537,72.307,54.15,70.6,54.15z"/>
<path fill="#000000" d="M91.719,14.078c0-1.381-1.119-2.5-2.5-2.5s-2.5,1.119-2.5,2.5v2.942C77.98,10.066,67.234,6.281,55.9,6.281  c-13.252,0-25.714,5.162-35.085,14.533C11.442,30.186,6.281,42.646,6.281,55.9s5.162,25.715,14.534,35.086  c0.488,0.488,1.128,0.732,1.768,0.732s1.279-0.244,1.768-0.732c0.977-0.977,0.977-2.559,0-3.535  C15.922,79.023,11.281,67.818,11.281,55.9s4.642-23.123,13.069-31.551c8.428-8.427,19.633-13.068,31.55-13.068  c10.271,0,20.008,3.454,27.898,9.801h-3.084c-1.381,0-2.5,1.119-2.5,2.5s1.119,2.5,2.5,2.5h8.504c1.381,0,2.5-1.119,2.5-2.5  c0-0.171-0.018-0.338-0.051-0.5c0.002-0.003,0.002-0.007,0.002-0.01c0.031-0.162,0.049-0.326,0.049-0.49l0,0V14.078z"/>
</svg>