<?xml version="1.0" encoding="utf-8"?>
<!-- Generator: Adobe Illustrator 15.0.0, SVG Export Plug-In . SVG Version: 6.00 Build 0)  -->
<!DOCTYPE svg PUBLIC "-//W3C//DTD SVG 1.1//EN" "http://www.w3.org/Graphics/SVG/1.1/DTD/svg11.dtd">
<svg version="1.1" id="Layer_1" xmlns="http://www.w3.org/2000/svg" xmlns:xlink="http://www.w3.org/1999/xlink" x="0px" y="0px"
	 width="50.4px" height="50.4px" viewBox="0 0 50.4 50.4" enable-background="new 0 0 50.4 50.4" xml:space="preserve">
<g id="Layer_1_1_">
</g>
<g id="Layer_2">
	<path d="M34.26,12.027c0,2.169-1.79,3.955-3.955,3.955c-2.085,0-3.877-1.786-3.877-3.955c0-2.161,1.791-3.881,3.877-3.881
		C32.469,8.146,34.26,9.867,34.26,12.027z"/>
	<path d="M29.369,39.974c0,5.748,4.715,10.426,10.507,10.426c5.752,0,10.434-4.677,10.434-10.425c0-5.799-4.682-10.51-10.435-10.511
		c-1.655,0-3.217,0.396-4.611,1.081l-1.927-3.098c-0.366-0.588-1.142-0.767-1.729-0.403c-0.588,0.367-0.77,1.141-0.403,1.729
		l1.948,3.135C30.844,33.836,29.369,36.734,29.369,39.974z M31.719,39.975c0-2.396,1.057-4.532,2.706-6.025l4.185,6.732
		c0.238,0.383,0.648,0.595,1.067,0.595c0.226,0,0.454-0.062,0.661-0.191c0.589-0.366,0.77-1.139,0.403-1.728l-4.226-6.797
		c1.027-0.471,2.159-0.745,3.36-0.745c4.457,0,8.083,3.659,8.083,8.159c0,4.458-3.626,8.083-8.083,8.083
		C35.377,48.058,31.718,44.433,31.719,39.975z"/>
	<path d="M0,39.809c0,5.79,4.682,10.505,10.434,10.505c5.794,0,10.507-4.715,10.507-10.505c0-5.752-4.713-10.435-10.507-10.435
		C4.681,29.375,0,34.057,0,39.809z M2.346,39.809c0-4.458,3.629-8.083,8.087-8.083c4.496,0,8.159,3.625,8.159,8.083
		c0,4.491-3.663,8.15-8.159,8.15C5.975,47.96,2.346,44.301,2.346,39.809z"/>
	<path d="M15.793,11.129c0.713-0.693,1.853-0.681,2.546,0.03l1.671,1.701c0.697,0.711,0.684,1.852-0.024,2.548l-5.802,5.681
		c-0.709,0.696-1.848,0.684-2.543-0.027l-1.667-1.703c-0.7-0.711-0.691-1.853,0.023-2.544L15.793,11.129z"/>
	<g>
		<path d="M25.512,19.18l0.837,1.278l2.541,4.028c0.444,0.667,1.041,0.971,1.639,0.971h7.535c2.312,0,2.312-3.061,0-3.061h-6.49
			l-4.329-6.712c-0.967-1.488-2.609-1.567-2.609-1.567c-1.491-0.151-2.461,1.045-2.461,1.045l-4.054,4.018H25.512z"/>
		<path d="M13.069,25.604c0,1.198,0.672,2.313,1.645,2.838l8.43,4.702v8.8c0,1.271,1.043,2.237,2.239,2.237
			c1.269,0,2.236-0.967,2.236-2.237v-11.04c0.297-1.717-1.641-2.688-1.641-2.688l-4.923-2.537l5.294-5.221l-9.498-0.021
			l-2.955,2.929C13.296,23.964,13.07,24.791,13.069,25.604z"/>
	</g>
</g>
</svg>
