<?xml version="1.0" encoding="utf-8"?>
<!-- Generator: Adobe Illustrator 16.0.0, SVG Export Plug-In . SVG Version: 6.00 Build 0)  -->
<!DOCTYPE svg PUBLIC "-//W3C//DTD SVG 1.1//EN" "http://www.w3.org/Graphics/SVG/1.1/DTD/svg11.dtd">
<svg version="1.1" id="Layer_1" xmlns="http://www.w3.org/2000/svg" xmlns:xlink="http://www.w3.org/1999/xlink" x="0px" y="0px"
	 width="82.802px" height="100px" viewBox="0 0 82.802 100" enable-background="new 0 0 82.802 100" xml:space="preserve">
<g>
	<g>
		<path fill="#010101" d="M47.66,100c-20.968,0-36.257-11.441-45.438-34.012c-0.218-0.532-0.396-0.973-0.542-1.299
			c-1.693-3.789-3.49-14.496,2.129-18.495c2.487-1.775,6.753-2.672,12.928,3.125c3.397,3.188,5.689,4.883,7.148,5.778L23.855,4.654
			C23.854,2.084,25.933,0.001,28.501,0c0.001,0,0.001,0,0.002,0c2.567,0,4.65,2.08,4.653,4.649l0.032,51.983
			c0.219,2.742-0.688,6.378-3.98,8.027c-4.438,2.231-10.079-0.328-18.84-8.554c-0.4-0.375-0.752-0.681-1.061-0.928
			c-0.075,1.779,0.217,4.266,0.864,5.713c0.181,0.403,0.399,0.939,0.666,1.594c2.84,6.977,11.479,28.213,36.823,28.213
			c8.059,0,14.359-2.237,18.731-6.648C73.399,76.98,73.5,66.3,73.5,66.195V25.067c0-2.569,2.083-4.652,4.653-4.652
			c2.566,0,4.649,2.082,4.649,4.652v41.085c0.006,0.547,0.019,14.539-9.803,24.445C66.817,96.837,58.293,100,47.66,100z"/>
	</g>
	<g>
		<path fill="#010101" d="M45.623,52.199c-2.566,0-4.65-2.083-4.65-4.652l-0.005-1.479c-0.043-2.445-0.127-15.329-0.251-38.291
			c-0.015-2.568,2.059-4.662,4.625-4.677c0.012,0,0.02,0,0.027,0c2.555,0,4.637,2.066,4.652,4.625
			c0.119,22.928,0.204,35.771,0.248,38.177l0.007,1.645C50.275,50.116,48.194,52.199,45.623,52.199z"/>
	</g>
	<g>
		<path fill="#010101" d="M62.049,52.199c-2.569,0-4.65-2.083-4.65-4.652l-0.003-1.479c-0.046-2.445-0.132-9.126-0.254-32.088
			c-0.014-2.57,2.061-4.665,4.628-4.677c0.006,0,0.017,0,0.021,0c2.556,0,4.64,2.066,4.652,4.625
			c0.124,22.926,0.208,29.568,0.251,31.974l0.005,1.645C66.701,50.116,64.623,52.199,62.049,52.199z"/>
	</g>
</g>
</svg>
