<?xml version="1.0" encoding="utf-8"?>
<!-- Generator: Adobe Illustrator 17.0.0, SVG Export Plug-In . SVG Version: 6.00 Build 0)  -->
<!DOCTYPE svg PUBLIC "-//W3C//DTD SVG 1.1//EN" "http://www.w3.org/Graphics/SVG/1.1/DTD/svg11.dtd">
<svg version="1.1" id="Layer_1" xmlns="http://www.w3.org/2000/svg" xmlns:xlink="http://www.w3.org/1999/xlink" x="0px" y="0px"
	 width="100px" height="53.846px" viewBox="0 0 100 53.846" enable-background="new 0 0 100 53.846" xml:space="preserve">
<g>
	<path fill="rgb(255, 255, 255)" d="M92.31,42.628c0,2.122-1.725,3.847-3.847,3.847h-3.848V7.371h3.848c2.122,0,3.847,1.726,3.847,3.846V42.628z M88.463,0
		H76.925v53.846h11.538c6.362,0,11.537-5.176,11.537-11.538v-30.77C100,5.177,94.824,0,88.463,0"/>
	<path fill="rgb(255, 255, 255)" d="M11.539,0C5.176,0,0,5.177,0,11.538v30.77c0,6.362,5.176,11.538,11.539,11.538c2.596,0,4.986-0.872,6.916-2.325
		l0.776,2.325h3.845V24.359H11.539v7.69h3.846v10.578c0,2.122-1.725,3.847-3.846,3.847c-2.122,0-3.846-1.725-3.846-3.847V11.217
		c0-2.12,1.724-3.846,3.846-3.846c2.12,0,3.846,1.726,3.846,3.846v5.45h7.692v-5.13C23.077,5.177,17.9,0,11.539,0"/>
	<path fill="rgb(255, 255, 255)" d="M41.026,42.628c0,2.122-1.724,3.847-3.846,3.847c-2.122,0-3.846-1.725-3.846-3.847V11.217c0-2.12,1.724-3.846,3.846-3.846
		c2.122,0,3.846,1.726,3.846,3.846V42.628z M37.18,0c-6.362,0-11.538,5.177-11.538,11.538v30.77c0,6.362,5.176,11.538,11.538,11.538
		c6.363,0,11.539-5.176,11.539-11.538v-30.77C48.72,5.177,43.543,0,37.18,0"/>
	<path fill="rgb(255, 255, 255)" d="M66.668,42.628c0,2.122-1.725,3.847-3.846,3.847c-2.12,0-3.848-1.725-3.848-3.847V11.217c0-2.12,1.728-3.846,3.848-3.846
		c2.121,0,3.846,1.726,3.846,3.846V42.628z M62.822,0c-6.361,0-11.541,5.177-11.541,11.538v30.77c0,6.362,5.18,11.538,11.541,11.538
		c6.361,0,11.537-5.176,11.537-11.538v-30.77C74.359,5.177,69.183,0,62.822,0"/>
</g>
</svg>
