<?xml version="1.0" encoding="utf-8"?>
<!-- Generator: Adobe Illustrator 17.0.0, SVG Export Plug-In . SVG Version: 6.00 Build 0)  -->
<!DOCTYPE svg PUBLIC "-//W3C//DTD SVG 1.1//EN" "http://www.w3.org/Graphics/SVG/1.1/DTD/svg11.dtd">
<svg version="1.1" id="Layer_1" xmlns="http://www.w3.org/2000/svg" xmlns:xlink="http://www.w3.org/1999/xlink" x="0px" y="0px"
	 width="20px" height="20px" viewBox="0 0 20 20" enable-background="new 0 0 20 20" xml:space="preserve">
<path fill="rgb(204, 204, 204)" d="M20,1.2v13.6c0,0.663-0.537,1.2-1.2,1.2H16v-1.6h2.4V1.6H5.6V4H4V1.2C4,0.538,4.537,0,5.2,0h13.6
	C19.463,0,20,0.538,20,1.2z M14.4,5.6H1.6v12.8H14.4V5.6 M14.8,4C15.463,4,16,4.538,16,5.2v13.6c0,0.663-0.537,1.2-1.2,1.2H1.2
	C0.537,20,0,19.463,0,18.8V5.2C0,4.538,0.537,4,1.2,4H14.8L14.8,4z M10,9c0,0.552,0.447,1,1,1c0.553,0,1-0.448,1-1s-0.447-1-1-1
	C10.447,8,10,8.448,10,9z M2.56,17.36H13.44v-4.4l-3.573,1.92l-7.308-3.2V17.36z"/>
</svg>
